<svg width="75" height="74" viewBox="0 0 75 74" fill="none" xmlns="http://www.w3.org/2000/svg">
<path d="M74.391 37C74.391 29.6821 72.2275 22.5285 68.174 16.4439C64.1206 10.3593 58.3593 5.61692 51.6186 2.81647C44.8779 0.0160316 37.4608 -0.716692 30.3049 0.710962C23.1491 2.13862 16.576 5.66252 11.4169 10.8371C6.25789 16.0116 2.74452 22.6044 1.32114 29.7817C-0.102244 36.9589 0.628288 44.3984 3.42036 51.1593C6.21243 57.9202 10.9406 63.6988 17.007 67.7644C23.0735 71.83 30.2057 74 37.5016 74C42.3462 74.0006 47.1433 73.0438 51.6192 71.1846C56.095 69.3253 60.1619 66.5999 63.5874 63.164C67.013 59.7281 69.7302 55.6491 71.584 51.1599C73.4376 46.6706 74.3915 41.8591 74.391 37Z" fill="#B7ECB1"/>
<path d="M16.7168 29.8281H18.7206L12.774 44.5072H12.3179L6.25293 29.8281H8.28179L12.5118 40.0931L16.7168 29.8281Z" fill="white"/>
<path d="M24.5897 38.6568V42.7612C24.5897 43.0895 24.6975 43.2538 24.9129 43.2538C25.2963 43.1795 25.6541 43.002 25.9507 42.7389V43.903C25.6343 44.1239 25.2989 44.3138 24.9488 44.4702C24.6956 44.5714 24.4266 44.6233 24.1552 44.6231C23.3724 44.6231 22.9092 44.3023 22.7655 43.6605C22.0646 44.2592 21.1878 44.591 20.2806 44.6008C19.9826 44.6097 19.6859 44.5555 19.4086 44.4413C19.1314 44.3271 18.8795 44.1553 18.6683 43.9366C18.4562 43.7198 18.2895 43.4596 18.1788 43.1726C18.0682 42.8855 18.016 42.5777 18.0255 42.2687C18.0246 41.6624 18.2498 41.0792 18.6539 40.6418C19.1538 40.1197 19.7709 39.7351 20.4494 39.5224L22.7943 38.6829V38.1716C22.7943 37.0149 22.2376 36.4329 21.1245 36.4329C20.1238 36.4329 19.1495 36.9701 18.2014 38.0448V35.9366C18.9196 35.0684 19.9443 34.6331 21.2753 34.6306C22.1446 34.5903 22.9979 34.8823 23.6741 35.4515C23.8927 35.6493 24.0762 35.8855 24.2162 36.1493C24.3705 36.4165 24.4753 36.7114 24.5251 37.0187C24.5801 37.5652 24.6018 38.1148 24.5897 38.6642V38.6568ZM22.7943 42.5485V39.6903L21.5662 40.1829C21.0819 40.3555 20.6326 40.62 20.2412 40.9627C19.9983 41.2248 19.8625 41.5745 19.8625 41.9385C19.8625 42.3024 19.9983 42.6521 20.2412 42.9142C20.3673 43.0399 20.5167 43.1377 20.6802 43.2018C20.8437 43.2659 21.0181 43.295 21.1928 43.2874C21.4968 43.2805 21.7965 43.211 22.0745 43.0828C22.3525 42.9548 22.6032 42.7707 22.8122 42.5411" fill="white"/>
<path d="M29.4436 29.8281H27.6123V44.4476H29.4436V29.8281Z" fill="white"/>
<path d="M43.5334 29.8281H45.4151V44.4438H43.3934V33.0706L39.0664 38.7199H38.6929L34.3192 33.0706V44.4438H32.3047V29.8281H34.2115L38.8868 35.8318L43.5334 29.8281Z" fill="white"/>
<path d="M54.0175 38.6575V42.7619C54.0175 43.0903 54.1252 43.2545 54.3406 43.2545C54.7242 43.1809 55.0823 43.0033 55.3784 42.7395V43.9038C55.0621 44.1247 54.7267 44.3146 54.3766 44.4709C54.1246 44.5722 53.8568 44.6241 53.5865 44.6239C52.8013 44.6239 52.3381 44.303 52.1968 43.6612C51.4942 44.2593 50.6166 44.5911 49.7083 44.6015C49.4103 44.6103 49.1137 44.5559 48.8364 44.4417C48.5593 44.3275 48.3073 44.1559 48.096 43.9374C47.8838 43.7205 47.7171 43.4604 47.6066 43.1734C47.4959 42.8863 47.4437 42.5785 47.4533 42.2694C47.4522 41.663 47.6775 41.0799 48.0817 40.6425C48.5815 40.1205 49.1985 39.7358 49.8772 39.5232L52.222 38.6836V38.1724C52.222 37.0157 51.6654 36.4336 50.5522 36.4336C49.5515 36.4336 48.5784 36.9709 47.6328 38.0456V35.9374C48.351 35.0691 49.3743 34.6339 50.7031 34.6314C51.5738 34.5871 52.43 34.8766 53.109 35.4448C53.5501 35.8563 53.8491 36.4068 53.96 37.012C54.0151 37.5585 54.0367 38.1081 54.0246 38.6575H54.0175ZM52.2292 42.5418V39.6836L51.0011 40.1762C50.5168 40.3488 50.0676 40.6133 49.6761 40.956C49.4307 41.2157 49.2918 41.5641 49.2884 41.928C49.2851 42.2919 49.4176 42.643 49.6581 42.9075C49.7843 43.0332 49.9336 43.131 50.0972 43.1951C50.2607 43.2592 50.435 43.2883 50.6097 43.2807C50.9137 43.2738 51.2134 43.2043 51.4914 43.0761C51.7694 42.9481 52.0201 42.7639 52.2292 42.5344" fill="white"/>
<path d="M58.9606 34.8179V37.0268L59.0612 36.8589C59.947 35.3664 60.8339 34.6201 61.7221 34.6201C62.4115 34.6201 63.1297 34.9821 63.8766 35.706L62.9107 37.3813C62.2751 36.7544 61.6826 36.441 61.1403 36.441C60.8352 36.4482 60.5362 36.5315 60.2687 36.6842C60.0012 36.8368 59.7729 37.0542 59.6034 37.318C59.1658 37.9152 58.9366 38.6495 58.9535 39.4V44.4447H57.1113V34.8179H58.9606Z" fill="white"/>
<path d="M66.1105 30.7687C66.2541 30.7663 66.3966 30.7939 66.5299 30.8496C66.663 30.9054 66.7842 30.9881 66.8861 31.0933C66.9904 31.195 67.073 31.3182 67.1288 31.4551C67.1844 31.592 67.2118 31.7394 67.2092 31.8881C67.2105 32.0364 67.1825 32.1835 67.1269 32.3203C67.0713 32.4569 66.9893 32.5803 66.8861 32.6828C66.785 32.79 66.6644 32.8749 66.5311 32.9326C66.3978 32.9903 66.2548 33.0195 66.1105 33.0186C65.9707 33.0184 65.8325 32.9881 65.7046 32.9297C65.5766 32.8712 65.4618 32.786 65.3671 32.6791C65.2648 32.5767 65.1835 32.4538 65.1279 32.3179C65.0723 32.1819 65.0439 32.0357 65.0439 31.8881C65.0446 31.7422 65.0736 31.598 65.1292 31.464C65.1847 31.33 65.2656 31.2089 65.3671 31.1082C65.4618 31.0014 65.5766 30.9161 65.7046 30.8576C65.8325 30.7992 65.9707 30.7689 66.1105 30.7687ZM65.2055 34.8171H67.0477V44.444H65.2163L65.2055 34.8171Z" fill="white"/>
</svg>
